<svg xmlns="http://www.w3.org/2000/svg" viewBox="0 0 256 256" width="120" height="120">
  <defs>
    <linearGradient id="jiraGradient" x1="0%" y1="0%" x2="100%" y2="100%">
      <stop offset="0%" stop-color="#2684FF"></stop>
      <stop offset="100%" stop-color="#0052CC"></stop>
    </linearGradient>
  </defs>

  <path d="M128 20c0 28.3 23 51.3 51.3 51.3h20.7v20.7c0 28.3 23 51.3 51.3 51.3V20H128z" fill="url(#jiraGradient)"></path>
  <path d="M64 84.7c0 28.3 23 51.3 51.3 51.3h20.7v20.7c0 28.3 23 51.3 51.3 51.3V84.7H64z" fill="url(#jiraGradient)" opacity="0.9"></path>
  <path d="M20 149.3c0 28.3 23 51.3 51.3 51.3h20.7v20.7c0 28.3 23 51.3 51.3 51.3V149.3H20z" fill="url(#jiraGradient)" opacity="0.8"></path>
</svg>
